# Hierarchical Translation and Rotation (.htr) file
# Generated by EVaRT
[Header]
FileType htr
DataType HTRS
FileVersion 1
NumSegments 23
NumFrames 5
DataFrameRate 120
EulerRotationOrder ZYX
CalibrationUnits mm
RotationUnits Degrees
GlobalAxisofGravity Y
BoneLengthAxis Y
ScaleFactor 1
[SegmentNames&Hierarchy]
#CHILD            PARENT
DaveRoot          GLOBAL
Spine1            DaveRoot
Spine2            Spine1
Spine3            Spine2
Spine4            Spine3
Neck              Spine4
Head              Neck
LClavicle         Spine4
LUpperArm         LClavicle
LLowerArm         LUpperArm
LHand             LLowerArm
RClavicle         Spine4
RUpperArm         RClavicle
RLowerArm         RUpperArm
RHand             RLowerArm
RUpperLeg         DaveRoot
RLowerLeg         RUpperLeg
RFoot             RLowerLeg
RToes             RFoot
LUpperLeg         DaveRoot
LLowerLeg         LUpperLeg
LFoot             LLowerLeg
LToes             LFoot
[BasePosition]
#SegmentName      Tx   Ty   Tz   Rx   Ry   Rz   BoneLength
DaveRoot          1078.678277	988.889323	-667.355416	21.100172	-35.850280	-13.563871	100.000000
Spine1            0.000000	100.000000	0.000000	-14.881963	2.292165	3.740750	100.000000
Spine2            0.000000	100.000000	0.000000	6.530342	0.668586	4.295175	100.000000
Spine3            0.000000	100.000000	0.000000	12.838786	0.191691	4.342582	100.000000
Spine4            0.000000	100.000000	0.000000	14.062130	1.171471	5.872723	100.000000
Neck              0.000000	100.000000	0.000000	7.737895	11.498691	-3.920750	80.000000
Head              0.000000	80.000000	0.000000	-47.820279	-9.378091	-2.499782	200.000000
LClavicle         0.000000	100.000000	0.000000	7.006000	0.163524	-123.648937	200.000000
LUpperArm         0.000000	200.000000	0.000000	39.957204	52.516966	-16.160711	300.000000
LLowerArm         0.000000	300.000000	0.000000	-1.806693	2.175812	1.895763	200.000000
LHand             0.000000	200.000000	0.000000	16.195035	-1.768569	8.793625	120.000000
RClavicle         0.000000	100.000000	0.000000	3.329328	-3.962094	109.315139	200.000000
RUpperArm         0.000000	200.000000	0.000000	31.467517	-27.516660	21.198784	300.000000
RLowerArm         0.000000	300.000000	0.000000	20.023297	-3.682026	-7.348670	200.000000
RHand             0.000000	200.000000	0.000000	6.266882	13.427731	10.826414	120.000000
RUpperLeg         -115.911102	-10.000000	31.058285	22.207319	27.607647	-154.283666	530.000000
RLowerLeg         0.000000	530.000000	0.000000	-15.604109	0.479387	-2.520024	460.000000
RFoot             0.000000	460.000000	0.000000	98.099007	-9.797309	28.788465	130.000000
RToes             0.000000	130.000000	0.000000	-15.148141	0.005479	-0.002881	100.000000
LUpperLeg         115.911102	-10.000000	31.058285	41.660003	-3.682702	-163.432677	530.000000
LLowerLeg         0.000000	530.000000	0.000000	-22.778950	-3.275937	3.046484	460.000000
LFoot             0.000000	460.000000	0.000000	77.647326	-23.190969	-3.622247	130.000000
LToes             0.000000	130.000000	0.000000	14.512714	-0.000000	-0.000086	100.000000
#Beginning of Data.
[DaveRoot]
#Fr	Tx	Ty	Tz	Rx	Ry	Rz	SF
1182	-2101.864918	-115.277186	-617.031417	31.101827	31.982402	2.638890	1.000000	
1183	-2100.952164	-108.107713	-614.135769	30.309659	32.005607	2.409436	1.000000	
1184	-2100.109772	-101.142457	-611.130709	29.511578	31.998584	2.172788	1.000000	
1185	-2099.319007	-94.364227	-608.038096	28.721156	31.961890	1.938075	1.000000	
1186	-2098.572206	-87.764035	-604.880775	27.959155	31.902387	1.709222	1.000000	
[Spine1]
#Fr	Tx	Ty	Tz	Rx	Ry	Rz	SF
1182	0.000000	0.000000	0.000000	4.068786	1.215662	-4.924012	1.000000	
1183	0.000000	0.000000	0.000000	4.011568	1.288196	-4.853720	1.000000	
1184	0.000000	0.000000	0.000000	3.948102	1.358275	-4.786665	1.000000	
1185	0.000000	0.000000	0.000000	3.879238	1.424647	-4.724226	1.000000	
1186	0.000000	0.000000	0.000000	3.796450	1.482966	-4.667431	1.000000	
[Spine2]
#Fr	Tx	Ty	Tz	Rx	Ry	Rz	SF
1182	0.000000	0.000000	0.000000	4.068786	1.215662	-4.924012	1.000000	
1183	0.000000	0.000000	0.000000	4.011568	1.288196	-4.853720	1.000000	
1184	0.000000	0.000000	0.000000	3.948102	1.358275	-4.786665	1.000000	
1185	0.000000	0.000000	0.000000	3.879238	1.424647	-4.724226	1.000000	
1186	0.000000	0.000000	0.000000	3.796450	1.482966	-4.667431	1.000000	
[Spine3]
#Fr	Tx	Ty	Tz	Rx	Ry	Rz	SF
1182	0.000000	0.000000	0.000000	4.068786	1.215662	-4.924012	1.000000	
1183	0.000000	0.000000	0.000000	4.011568	1.288196	-4.853720	1.000000	
1184	0.000000	0.000000	0.000000	3.948102	1.358275	-4.786665	1.000000	
1185	0.000000	0.000000	0.000000	3.879238	1.424647	-4.724226	1.000000	
1186	0.000000	0.000000	0.000000	3.796450	1.482966	-4.667431	1.000000	
[Spine4]
#Fr	Tx	Ty	Tz	Rx	Ry	Rz	SF
1182	0.000000	0.000000	0.000000	4.068786	1.215662	-4.924012	1.000000	
1183	0.000000	0.000000	0.000000	4.011568	1.288196	-4.853720	1.000000	
1184	0.000000	0.000000	0.000000	3.948102	1.358275	-4.786665	1.000000	
1185	0.000000	0.000000	0.000000	3.879238	1.424647	-4.724226	1.000000	
1186	0.000000	0.000000	0.000000	3.796450	1.482966	-4.667431	1.000000	
[Neck]
#Fr	Tx	Ty	Tz	Rx	Ry	Rz	SF
1182	0.000000	0.000000	0.000000	-21.610606	-1.838757	-1.032738	1.000000	
1183	0.000000	0.000000	0.000000	-21.162699	-1.930676	-0.815172	1.000000	
1184	0.000000	0.000000	0.000000	-20.676670	-2.019300	-0.603940	1.000000	
1185	0.000000	0.000000	0.000000	-20.168031	-2.104054	-0.404124	1.000000	
1186	0.000000	0.000000	0.000000	-19.638569	-2.175424	-0.207777	1.000000	
[Head]
#Fr	Tx	Ty	Tz	Rx	Ry	Rz	SF
1182	0.000000	0.000000	0.000000	-21.610606	-1.838757	-1.032738	1.000000	
1183	0.000000	0.000000	0.000000	-21.162699	-1.930676	-0.815172	1.000000	
1184	0.000000	0.000000	0.000000	-20.676670	-2.019300	-0.603940	1.000000	
1185	0.000000	0.000000	0.000000	-20.168031	-2.104054	-0.404124	1.000000	
1186	0.000000	0.000000	0.000000	-19.638569	-2.175424	-0.207777	1.000000	
[LClavicle]
#Fr	Tx	Ty	Tz	Rx	Ry	Rz	SF
1182	0.000000	0.000000	0.000000	15.748221	-2.080067	26.661887	1.000000	
1183	0.000000	0.000000	0.000000	15.919490	-1.969195	26.197128	1.000000	
1184	0.000000	0.000000	0.000000	16.094708	-1.856197	25.732828	1.000000	
1185	0.000000	0.000000	0.000000	16.250242	-1.738833	25.270842	1.000000	
1186	0.000000	0.000000	0.000000	16.394135	-1.614539	24.797991	1.000000	
[LUpperArm]
#Fr	Tx	Ty	Tz	Rx	Ry	Rz	SF
1182	0.000000	0.000000	0.000000	6.733126	-23.473841	45.523786	1.000000	
1183	0.000000	0.000000	0.000000	7.149887	-21.790592	44.408729	1.000000	
1184	0.000000	0.000000	0.000000	7.467032	-20.068427	43.284538	1.000000	
1185	0.000000	0.000000	0.000000	7.728828	-18.322375	42.157036	1.000000	
1186	0.000000	0.000000	0.000000	7.891459	-16.544673	41.010788	1.000000	
[LLowerArm]
#Fr	Tx	Ty	Tz	Rx	Ry	Rz	SF
1182	0.000000	0.000000	0.000000	22.119601	0.000000	0.000000	1.000000	
1183	0.000000	0.000000	0.000000	21.051759	0.000000	0.000000	1.000000	
1184	0.000000	0.000000	0.000000	20.027177	0.000000	0.000000	1.000000	
1185	0.000000	0.000000	0.000000	18.992137	0.000000	0.000000	1.000000	
1186	0.000000	0.000000	0.000000	18.027028	0.000000	0.000000	1.000000	
[LHand]
#Fr	Tx	Ty	Tz	Rx	Ry	Rz	SF
1182	0.000000	0.000000	0.000000	-5.815945	-0.000000	0.000000	1.000000	
1183	0.000000	0.000000	0.000000	-5.781618	-0.000000	0.000000	1.000000	
1184	0.000000	0.000000	0.000000	-5.814360	-0.000000	0.000000	1.000000	
1185	0.000000	0.000000	0.000000	-5.861036	-0.000000	0.000000	1.000000	
1186	0.000000	0.000000	0.000000	-5.971570	-0.000000	0.000000	1.000000	
[RClavicle]
#Fr	Tx	Ty	Tz	Rx	Ry	Rz	SF
1182	0.000000	0.000000	0.000000	7.579615	0.784754	-7.392439	1.000000	
1183	0.000000	0.000000	0.000000	7.347016	0.730927	-7.166181	1.000000	
1184	0.000000	0.000000	0.000000	7.138270	0.680138	-6.930444	1.000000	
1185	0.000000	0.000000	0.000000	6.922978	0.630671	-6.695711	1.000000	
1186	0.000000	0.000000	0.000000	6.740539	0.587213	-6.471739	1.000000	
[RUpperArm]
#Fr	Tx	Ty	Tz	Rx	Ry	Rz	SF
1182	0.000000	0.000000	0.000000	5.760062	5.442639	-41.610527	1.000000	
1183	0.000000	0.000000	0.000000	5.534718	4.932311	-40.654445	1.000000	
1184	0.000000	0.000000	0.000000	5.250986	4.524227	-39.634049	1.000000	
1185	0.000000	0.000000	0.000000	5.046230	4.215830	-38.551129	1.000000	
1186	0.000000	0.000000	0.000000	4.776204	4.065545	-37.369845	1.000000	
[RLowerArm]
#Fr	Tx	Ty	Tz	Rx	Ry	Rz	SF
1182	0.000000	0.000000	0.000000	-2.383405	0.000000	0.000000	1.000000	
1183	0.000000	0.000000	0.000000	-2.266120	0.000000	0.000000	1.000000	
1184	0.000000	0.000000	0.000000	-1.930673	0.000000	0.000000	1.000000	
1185	0.000000	0.000000	0.000000	-1.765817	0.000000	0.000000	1.000000	
1186	0.000000	0.000000	0.000000	-1.353855	0.000000	0.000000	1.000000	
[RHand]
#Fr	Tx	Ty	Tz	Rx	Ry	Rz	SF
1182	0.000000	0.000000	0.000000	2.177626	-27.894377	-21.841753	1.000000	
1183	0.000000	0.000000	0.000000	2.468936	-27.975591	-22.030016	1.000000	
1184	0.000000	0.000000	0.000000	2.475263	-27.984310	-22.100333	1.000000	
1185	0.000000	0.000000	0.000000	2.738903	-28.014337	-22.196731	1.000000	
1186	0.000000	0.000000	0.000000	2.691643	-27.999909	-22.170728	1.000000	
[RUpperLeg]
#Fr	Tx	Ty	Tz	Rx	Ry	Rz	SF
1182	0.000000	0.000000	0.000000	69.660845	-26.844633	-28.563155	1.000000	
1183	0.000000	0.000000	0.000000	68.855388	-27.172093	-28.325736	1.000000	
1184	0.000000	0.000000	0.000000	68.069494	-27.526856	-28.049056	1.000000	
1185	0.000000	0.000000	0.000000	67.304920	-27.893921	-27.735419	1.000000	
1186	0.000000	0.000000	0.000000	66.564351	-28.252146	-27.382770	1.000000	
[RLowerLeg]
#Fr	Tx	Ty	Tz	Rx	Ry	Rz	SF
1182	0.000000	0.000000	0.000000	-52.692967	-0.000000	0.000000	1.000000	
1183	0.000000	0.000000	0.000000	-52.218499	-0.000000	0.000000	1.000000	
1184	0.000000	0.000000	0.000000	-51.775127	-0.000000	0.000000	1.000000	
1185	0.000000	0.000000	0.000000	-51.349700	-0.000000	0.000000	1.000000	
1186	0.000000	0.000000	0.000000	-50.928498	-0.000000	0.000000	1.000000	
[RFoot]
#Fr	Tx	Ty	Tz	Rx	Ry	Rz	SF
1182	0.000000	0.000000	0.000000	7.731878	6.879744	-37.105934	1.000000	
1183	0.000000	0.000000	0.000000	6.739137	6.997724	-38.656093	1.000000	
1184	0.000000	0.000000	0.000000	5.824673	6.698557	-40.308178	1.000000	
1185	0.000000	0.000000	0.000000	4.974884	5.902050	-41.979466	1.000000	
1186	0.000000	0.000000	0.000000	4.194782	4.639839	-43.528705	1.000000	
[RToes]
#Fr	Tx	Ty	Tz	Rx	Ry	Rz	SF
1182	0.000000	0.000000	0.000000	3.953264	0.000000	0.000000	1.000000	
1183	0.000000	0.000000	0.000000	2.769673	0.000000	0.000000	1.000000	
1184	0.000000	0.000000	0.000000	1.732039	0.000000	0.000000	1.000000	
1185	0.000000	0.000000	0.000000	0.977895	0.000000	0.000000	1.000000	
1186	0.000000	0.000000	0.000000	0.583779	0.000000	0.000000	1.000000	
[LUpperLeg]
#Fr	Tx	Ty	Tz	Rx	Ry	Rz	SF
1182	0.000000	0.000000	0.000000	29.415757	0.496108	-6.645614	1.000000	
1183	0.000000	0.000000	0.000000	27.743212	0.871182	-6.769494	1.000000	
1184	0.000000	0.000000	0.000000	26.063544	1.270672	-6.881414	1.000000	
1185	0.000000	0.000000	0.000000	24.389627	1.700427	-6.990798	1.000000	
1186	0.000000	0.000000	0.000000	22.745512	2.165045	-7.102318	1.000000	
[LLowerLeg]
#Fr	Tx	Ty	Tz	Rx	Ry	Rz	SF
1182	0.000000	0.000000	0.000000	-33.936255	0.000000	0.000000	1.000000	
1183	0.000000	0.000000	0.000000	-32.138674	0.000000	0.000000	1.000000	
1184	0.000000	0.000000	0.000000	-30.365164	0.000000	0.000000	1.000000	
1185	0.000000	0.000000	0.000000	-28.615845	0.000000	0.000000	1.000000	
1186	0.000000	0.000000	0.000000	-26.891226	0.000000	0.000000	1.000000	
[LFoot]
#Fr	Tx	Ty	Tz	Rx	Ry	Rz	SF
1182	0.000000	0.000000	0.000000	29.105218	8.658653	-10.512890	1.000000	
1183	0.000000	0.000000	0.000000	28.416855	8.943130	-10.162722	1.000000	
1184	0.000000	0.000000	0.000000	27.729609	9.160488	-9.813099	1.000000	
1185	0.000000	0.000000	0.000000	27.038840	9.295184	-9.471358	1.000000	
1186	0.000000	0.000000	0.000000	26.343397	9.321401	-9.151042	1.000000	
[LToes]
#Fr	Tx	Ty	Tz	Rx	Ry	Rz	SF
1182	0.000000	0.000000	0.000000	10.077602	0.000000	0.000000	1.000000	
1183	0.000000	0.000000	0.000000	10.280892	0.000000	0.000000	1.000000	
1184	0.000000	0.000000	0.000000	10.444976	0.000000	0.000000	1.000000	
1185	0.000000	0.000000	0.000000	10.549537	0.000000	0.000000	1.000000	
1186	0.000000	0.000000	0.000000	10.565440	0.000000	0.000000	1.000000	
